<svg data-name="Layer 1" xmlns="http://www.w3.org/2000/svg" width="561" height="493"><path d="M556.53 485.95c-.98 1.37-1.97 2.73-2.95 4.08A16.828 16.828 0 01544 493H17a16.904 16.904 0 01-9.21-2.72c-.91-1.2-1.81-2.41-2.72-3.62l.91-.5 266.79-147.88a16.02 16.02 0 0115.47-.02l267.39 147.19z" fill="#329f00"/><path d="M544 175L312.782 41.47a64.023 64.023 0 00-63.982-.032L17 175a17.024 17.024 0 00-17 17v284a17.02 17.02 0 0017 17h527a17.029 17.029 0 0017-17V192a17.024 17.024 0 00-17-17zm15 301a15.036 15.036 0 01-15 15H17a15.027 15.027 0 01-15-15V192a15.018 15.018 0 0115-15L248.8 43.438a64.023 64.023 0 0163.982.032L544 177a15.018 15.018 0 0115 15z" fill="#3f3d56"/><path d="M280.8 335.68a15.363 15.363 0 01-5.116-.858l-.303-.107-.061-.673c-.188.093-.379.182-.57.266l-.2.088-.202-.088c-.421-.185-.84-.395-1.243-.622L89 230.232V19A18.52 18.52 0 01107.5.5h346A18.52 18.52 0 01472 19v211.502l-.255.144-183.25 103.04a15.757 15.757 0 01-7.695 1.994z" fill="#fff"/><path d="M280.8 336.18a15.856 15.856 0 01-5.282-.887l-.606-.213-.026-.286-.336.148-.403-.176a14.88 14.88 0 01-1.288-.645L88.5 230.525V19a19.022 19.022 0 0119-19h346a19.022 19.022 0 0119 19v211.795L288.74 334.122a16.253 16.253 0 01-7.94 2.058zm-4.014-2.576a14.492 14.492 0 0010.975-1.226L470.5 229.625V19a17.02 17.02 0 00-17-17h-346a17.02 17.02 0 00-17 17v210.354l11.99 6.734 171.35 96.29q.35.197.71.371.36-.174.71-.37l1.346-.759z" fill="#3f3d56"/><path d="M556.57 182.38L484 223.18l-12.5 7.03-183.25 103.04a15.242 15.242 0 01-7.45 1.93 14.91 14.91 0 01-4.95-.83 12.054 12.054 0 01-1.3-.5q-.615-.27-1.2-.6L102 236.96l-12.5-7.02-84.92-47.72a1.011 1.011 0 01-.38-1.37 1 1 0 011.36-.38l83.94 47.17 12.5 7.02 172.33 96.84a13.074 13.074 0 001.78.83c.26.1.53.19.8.27a13.264 13.264 0 0010.36-1.1L471.5 227.92l12.5-7.03 71.59-40.25a.998.998 0 11.98 1.74z" fill="#3f3d56"/><path d="M164.075 66h-28a8 8 0 010-16h28a8 8 0 010 16z" fill="#329f00"/><path d="M197.075 93h-61a8 8 0 010-16h61a8 8 0 010 16z" fill="#e6e6e6"/><path d="M367.5 165h-173a8 8 0 010-16h173a8 8 0 010 16z" fill="#329f00"/><path d="M383.5 196h-206a8 8 0 010-16h206a8 8 0 010 16zm0 30h-206a8 8 0 010-16h206a8 8 0 010 16z" fill="#e6e6e6"/></svg>